<mxfile host="app.diagrams.net" modified="2024-01-08T13:38:22.632Z" agent="Mozilla/5.0 (Windows NT 10.0; Win64; x64) AppleWebKit/537.36 (KHTML, like Gecko) Chrome/120.0.0.0 Safari/537.36" etag="K6Eh3Yr2KGrqFUlNcYIz" version="22.1.17" type="github">
  <diagram id="C5RBs43oDa-KdzZeNtuy" name="Page-1">
    <mxGraphModel dx="1467" dy="723" grid="1" gridSize="10" guides="1" tooltips="1" connect="1" arrows="1" fold="1" page="1" pageScale="1" pageWidth="827" pageHeight="1169" math="0" shadow="0">
      <root>
        <mxCell id="WIyWlLk6GJQsqaUBKTNV-0" />
        <mxCell id="WIyWlLk6GJQsqaUBKTNV-1" parent="WIyWlLk6GJQsqaUBKTNV-0" />
        <mxCell id="R22uzPUmE0PmxV476rB4-1" value="" style="rounded=0;whiteSpace=wrap;html=1;fillColor=#d5e8d4;strokeColor=none;movable=0;resizable=0;rotatable=0;deletable=0;editable=0;locked=1;connectable=0;" vertex="1" parent="WIyWlLk6GJQsqaUBKTNV-1">
          <mxGeometry x="420" y="60" width="1748" height="1239" as="geometry" />
        </mxCell>
        <mxCell id="R22uzPUmE0PmxV476rB4-2" value="&lt;font style=&quot;font-size: 14px;&quot;&gt;Nginx&lt;br&gt;(web server-2)&lt;/font&gt;" style="image;aspect=fixed;perimeter=ellipsePerimeter;html=1;align=center;shadow=0;dashed=0;spacingTop=3;image=img/lib/active_directory/web_server.svg;" vertex="1" parent="WIyWlLk6GJQsqaUBKTNV-1">
          <mxGeometry x="991" y="664" width="88" height="110" as="geometry" />
        </mxCell>
        <mxCell id="R22uzPUmE0PmxV476rB4-3" value="&lt;font style=&quot;font-size: 10px; background-color: rgb(255, 255, 255);&quot;&gt;&lt;br&gt;Load Balancer(HAproxy)&lt;br style=&quot;border-color: var(--border-color);&quot;&gt;(Active-Active)&lt;br style=&quot;border-color: var(--border-color);&quot;&gt;&lt;i style=&quot;border-color: var(--border-color);&quot;&gt;&lt;br style=&quot;border-color: var(--border-color);&quot;&gt;&lt;br style=&quot;border-color: var(--border-color);&quot;&gt;and forward back the requests to the servers&lt;br style=&quot;border-color: var(--border-color);&quot;&gt;and the severs, to clients.&lt;/i&gt;&lt;br&gt;&lt;/font&gt;" style="verticalLabelPosition=bottom;html=1;verticalAlign=top;strokeWidth=1;align=center;outlineConnect=0;dashed=0;outlineConnect=0;shape=mxgraph.aws3d.elasticLoadBalancing;fillColor=#ECECEC;strokeColor=#5E5E5E;aspect=fixed;" vertex="1" parent="WIyWlLk6GJQsqaUBKTNV-1">
          <mxGeometry x="572" y="479" width="92" height="88.17" as="geometry" />
        </mxCell>
        <mxCell id="R22uzPUmE0PmxV476rB4-4" value="&lt;font style=&quot;font-size: 14px;&quot;&gt;Nginx&lt;br&gt;(web server-1)&lt;/font&gt;" style="image;aspect=fixed;perimeter=ellipsePerimeter;html=1;align=center;shadow=0;dashed=0;spacingTop=3;image=img/lib/active_directory/web_server.svg;" vertex="1" parent="WIyWlLk6GJQsqaUBKTNV-1">
          <mxGeometry x="991" y="239" width="88" height="110" as="geometry" />
        </mxCell>
        <mxCell id="R22uzPUmE0PmxV476rB4-5" value="" style="outlineConnect=0;dashed=0;verticalLabelPosition=bottom;verticalAlign=top;align=center;html=1;shape=mxgraph.aws3.ssl_padlock;fillColor=#D2D3D3;gradientColor=none;" vertex="1" parent="WIyWlLk6GJQsqaUBKTNV-1">
          <mxGeometry x="546" y="487" width="63" height="78" as="geometry" />
        </mxCell>
        <mxCell id="R22uzPUmE0PmxV476rB4-6" value="" style="endArrow=classic;startArrow=classic;html=1;rounded=0;exitX=0.991;exitY=0.607;exitDx=0;exitDy=0;exitPerimeter=0;entryX=-0.007;entryY=0.489;entryDx=0;entryDy=0;entryPerimeter=0;" edge="1" parent="WIyWlLk6GJQsqaUBKTNV-1" source="R22uzPUmE0PmxV476rB4-4" target="R22uzPUmE0PmxV476rB4-18">
          <mxGeometry width="50" height="50" relative="1" as="geometry">
            <mxPoint x="1075.9999999999995" y="345" as="sourcePoint" />
            <mxPoint x="1358" y="430" as="targetPoint" />
            <Array as="points">
              <mxPoint x="1218" y="306" />
            </Array>
          </mxGeometry>
        </mxCell>
        <mxCell id="R22uzPUmE0PmxV476rB4-7" value="&lt;div style=&quot;border-color: var(--border-color); font-size: 14px;&quot;&gt;&lt;font style=&quot;border-color: var(--border-color); background-color: initial; color: rgb(51, 51, 51); font-size: 24px;&quot;&gt;2. Secure and monitored we&lt;/font&gt;&lt;font style=&quot;border-color: var(--border-color); background-color: initial; color: rgb(51, 51, 51); font-size: 24px;&quot;&gt;b infrastructure&lt;/font&gt;&lt;br style=&quot;border-color: var(--border-color);&quot;&gt;&lt;/div&gt;&lt;div style=&quot;border-color: var(--border-color); font-size: 14px;&quot;&gt;&lt;font style=&quot;border-color: var(--border-color); font-size: 18px;&quot;&gt;&lt;br style=&quot;border-color: var(--border-color);&quot;&gt;&lt;/font&gt;&lt;/div&gt;&lt;div style=&quot;border-color: var(--border-color); font-size: 14px;&quot;&gt;&lt;font style=&quot;border-color: var(--border-color); font-size: 18px;&quot;&gt;&lt;u style=&quot;border-color: var(--border-color);&quot;&gt;domain name&lt;/u&gt;&amp;nbsp;- foobar.com&lt;/font&gt;&lt;/div&gt;&lt;div style=&quot;border-color: var(--border-color); font-size: 14px;&quot;&gt;&lt;font style=&quot;border-color: var(--border-color); font-size: 18px;&quot;&gt;&lt;u style=&quot;border-color: var(--border-color);&quot;&gt;sub-domain record&lt;/u&gt;&amp;nbsp;- www.foobar.com&lt;/font&gt;&lt;/div&gt;&lt;div style=&quot;border-color: var(--border-color); font-size: 14px;&quot;&gt;&lt;font style=&quot;border-color: var(--border-color); font-size: 18px;&quot;&gt;&lt;u style=&quot;border-color: var(--border-color);&quot;&gt;IP address&lt;/u&gt;&amp;nbsp;- (8.8.8.8&lt;font style=&quot;border-color: var(--border-color);&quot;&gt;)&lt;/font&gt;&lt;/font&gt;&lt;/div&gt;" style="text;html=1;strokeColor=none;fillColor=none;align=center;verticalAlign=middle;whiteSpace=wrap;rounded=0;" vertex="1" parent="WIyWlLk6GJQsqaUBKTNV-1">
          <mxGeometry x="1098" y="79" width="540" height="160" as="geometry" />
        </mxCell>
        <mxCell id="R22uzPUmE0PmxV476rB4-8" value="" style="edgeStyle=orthogonalEdgeStyle;rounded=0;orthogonalLoop=1;jettySize=auto;html=1;" edge="1" parent="WIyWlLk6GJQsqaUBKTNV-1" target="R22uzPUmE0PmxV476rB4-18">
          <mxGeometry relative="1" as="geometry">
            <mxPoint x="1515" y="316" as="sourcePoint" />
          </mxGeometry>
        </mxCell>
        <mxCell id="R22uzPUmE0PmxV476rB4-9" value="" style="edgeStyle=orthogonalEdgeStyle;rounded=0;orthogonalLoop=1;jettySize=auto;html=1;" edge="1" parent="WIyWlLk6GJQsqaUBKTNV-1" target="R22uzPUmE0PmxV476rB4-11">
          <mxGeometry relative="1" as="geometry">
            <mxPoint x="1555" y="276" as="sourcePoint" />
          </mxGeometry>
        </mxCell>
        <mxCell id="R22uzPUmE0PmxV476rB4-11" value="This refers to the website&#39;s code, which will be hosted on the server and executed by the application server." style="whiteSpace=wrap;html=1;verticalAlign=top;labelBackgroundColor=default;" vertex="1" parent="WIyWlLk6GJQsqaUBKTNV-1">
          <mxGeometry x="1597" y="195.5" width="150" height="65.5" as="geometry" />
        </mxCell>
        <mxCell id="R22uzPUmE0PmxV476rB4-12" value="&lt;font style=&quot;font-size: 14px;&quot;&gt;MySQL &lt;br&gt;(Database-1)&lt;/font&gt;" style="image;html=1;image=img/lib/clip_art/computers/Database_128x128.png" vertex="1" parent="WIyWlLk6GJQsqaUBKTNV-1">
          <mxGeometry x="2062" y="367.5" width="80" height="80" as="geometry" />
        </mxCell>
        <mxCell id="R22uzPUmE0PmxV476rB4-13" value="" style="endArrow=classic;html=1;rounded=0;exitX=0.727;exitY=0.273;exitDx=0;exitDy=0;exitPerimeter=0;entryX=0.138;entryY=0.244;entryDx=0;entryDy=0;entryPerimeter=0;strokeWidth=1;" edge="1" parent="WIyWlLk6GJQsqaUBKTNV-1" target="R22uzPUmE0PmxV476rB4-12">
          <mxGeometry width="50" height="50" relative="1" as="geometry">
            <mxPoint x="1464" y="387" as="sourcePoint" />
            <mxPoint x="1955" y="387" as="targetPoint" />
          </mxGeometry>
        </mxCell>
        <mxCell id="R22uzPUmE0PmxV476rB4-14" value="&lt;font style=&quot;font-size: 12px;&quot;&gt;&lt;font style=&quot;&quot; color=&quot;#ff3333&quot;&gt;&amp;nbsp;&lt;/font&gt;application server&amp;nbsp;&lt;font style=&quot;&quot; color=&quot;#ff3333&quot;&gt;interacts&lt;/font&gt; with the database and generates dynamic content&amp;nbsp;&lt;/font&gt;" style="edgeLabel;html=1;align=center;verticalAlign=middle;resizable=0;points=[];" vertex="1" connectable="0" parent="R22uzPUmE0PmxV476rB4-13">
          <mxGeometry x="-0.2159" y="-1" relative="1" as="geometry">
            <mxPoint x="66" y="-2" as="offset" />
          </mxGeometry>
        </mxCell>
        <mxCell id="R22uzPUmE0PmxV476rB4-15" value="" style="endArrow=classic;html=1;rounded=0;exitX=0.138;exitY=0.531;exitDx=0;exitDy=0;exitPerimeter=0;entryX=0.889;entryY=0.491;entryDx=0;entryDy=0;entryPerimeter=0;strokeWidth=1;" edge="1" parent="WIyWlLk6GJQsqaUBKTNV-1" source="R22uzPUmE0PmxV476rB4-12" target="R22uzPUmE0PmxV476rB4-18">
          <mxGeometry width="50" height="50" relative="1" as="geometry">
            <mxPoint x="1955" y="409" as="sourcePoint" />
            <mxPoint x="1464" y="409" as="targetPoint" />
          </mxGeometry>
        </mxCell>
        <mxCell id="R22uzPUmE0PmxV476rB4-16" value="&lt;font style=&quot;font-size: 12px;&quot;&gt;It allows the application server to retrieve or modify data when needed&lt;/font&gt;" style="edgeLabel;html=1;align=center;verticalAlign=middle;resizable=0;points=[];" vertex="1" connectable="0" parent="R22uzPUmE0PmxV476rB4-15">
          <mxGeometry x="-0.2159" y="-1" relative="1" as="geometry">
            <mxPoint x="-66" as="offset" />
          </mxGeometry>
        </mxCell>
        <mxCell id="R22uzPUmE0PmxV476rB4-17" style="edgeStyle=orthogonalEdgeStyle;rounded=0;orthogonalLoop=1;jettySize=auto;html=1;exitX=0.5;exitY=1;exitDx=0;exitDy=0;" edge="1" parent="WIyWlLk6GJQsqaUBKTNV-1">
          <mxGeometry relative="1" as="geometry">
            <mxPoint x="1515" y="316" as="sourcePoint" />
            <mxPoint x="1515" y="316" as="targetPoint" />
          </mxGeometry>
        </mxCell>
        <mxCell id="R22uzPUmE0PmxV476rB4-18" value="&lt;span style=&quot;background-color: rgb(255, 255, 255);&quot;&gt;Application server-1&lt;/span&gt;" style="verticalLabelPosition=bottom;aspect=fixed;html=1;verticalAlign=top;strokeColor=none;shape=mxgraph.citrix.xenapp_server;fillColor=#66B2FF;gradientColor=#0066CC;fontSize=14;" vertex="1" parent="WIyWlLk6GJQsqaUBKTNV-1">
          <mxGeometry x="1409" y="365" width="76" height="89" as="geometry" />
        </mxCell>
        <mxCell id="R22uzPUmE0PmxV476rB4-19" value="" style="edgeStyle=orthogonalEdgeStyle;rounded=0;orthogonalLoop=1;jettySize=auto;html=1;" edge="1" parent="WIyWlLk6GJQsqaUBKTNV-1" target="R22uzPUmE0PmxV476rB4-21">
          <mxGeometry relative="1" as="geometry">
            <mxPoint x="1548" y="773" as="sourcePoint" />
          </mxGeometry>
        </mxCell>
        <mxCell id="R22uzPUmE0PmxV476rB4-21" value="This refers to the website&#39;s code, which will be hosted on the server and executed by the application server." style="whiteSpace=wrap;html=1;verticalAlign=top;labelBackgroundColor=default;" vertex="1" parent="WIyWlLk6GJQsqaUBKTNV-1">
          <mxGeometry x="1590" y="793.5" width="150" height="67.5" as="geometry" />
        </mxCell>
        <mxCell id="R22uzPUmE0PmxV476rB4-22" value="&lt;font style=&quot;font-size: 14px;&quot;&gt;MySQL &lt;br&gt;(Database-2)&lt;/font&gt;" style="image;html=1;image=img/lib/clip_art/computers/Database_128x128.png" vertex="1" parent="WIyWlLk6GJQsqaUBKTNV-1">
          <mxGeometry x="2062" y="644.5" width="80" height="80" as="geometry" />
        </mxCell>
        <mxCell id="R22uzPUmE0PmxV476rB4-23" value="" style="endArrow=classic;html=1;rounded=0;exitX=0.727;exitY=0.273;exitDx=0;exitDy=0;exitPerimeter=0;entryX=0.138;entryY=0.244;entryDx=0;entryDy=0;entryPerimeter=0;strokeWidth=1;" edge="1" parent="WIyWlLk6GJQsqaUBKTNV-1" target="R22uzPUmE0PmxV476rB4-22">
          <mxGeometry width="50" height="50" relative="1" as="geometry">
            <mxPoint x="1464" y="664" as="sourcePoint" />
            <mxPoint x="1955" y="664" as="targetPoint" />
          </mxGeometry>
        </mxCell>
        <mxCell id="R22uzPUmE0PmxV476rB4-24" value="&lt;font style=&quot;font-size: 12px;&quot;&gt;&lt;font style=&quot;&quot; color=&quot;#ff3333&quot;&gt;&amp;nbsp;&lt;/font&gt;application server&amp;nbsp;&lt;font style=&quot;&quot; color=&quot;#ff3333&quot;&gt;interacts&lt;/font&gt; with the database and generates dynamic content&amp;nbsp;&lt;/font&gt;" style="edgeLabel;html=1;align=center;verticalAlign=middle;resizable=0;points=[];" vertex="1" connectable="0" parent="R22uzPUmE0PmxV476rB4-23">
          <mxGeometry x="-0.2159" y="-1" relative="1" as="geometry">
            <mxPoint x="66" y="-2" as="offset" />
          </mxGeometry>
        </mxCell>
        <mxCell id="R22uzPUmE0PmxV476rB4-25" value="" style="endArrow=classic;html=1;rounded=0;exitX=0.138;exitY=0.531;exitDx=0;exitDy=0;exitPerimeter=0;entryX=1.029;entryY=0.857;entryDx=0;entryDy=0;entryPerimeter=0;strokeWidth=1;" edge="1" parent="WIyWlLk6GJQsqaUBKTNV-1" source="R22uzPUmE0PmxV476rB4-22" target="R22uzPUmE0PmxV476rB4-29">
          <mxGeometry width="50" height="50" relative="1" as="geometry">
            <mxPoint x="1955" y="686" as="sourcePoint" />
            <mxPoint x="1464" y="686" as="targetPoint" />
          </mxGeometry>
        </mxCell>
        <mxCell id="R22uzPUmE0PmxV476rB4-26" value="&lt;font style=&quot;font-size: 12px;&quot;&gt;It allows the application server to retrieve or modify data when needed&lt;/font&gt;" style="edgeLabel;html=1;align=center;verticalAlign=middle;resizable=0;points=[];" vertex="1" connectable="0" parent="R22uzPUmE0PmxV476rB4-25">
          <mxGeometry x="-0.2159" y="-1" relative="1" as="geometry">
            <mxPoint x="-66" as="offset" />
          </mxGeometry>
        </mxCell>
        <mxCell id="R22uzPUmE0PmxV476rB4-27" style="edgeStyle=orthogonalEdgeStyle;rounded=0;orthogonalLoop=1;jettySize=auto;html=1;exitX=0.5;exitY=1;exitDx=0;exitDy=0;" edge="1" parent="WIyWlLk6GJQsqaUBKTNV-1">
          <mxGeometry relative="1" as="geometry">
            <mxPoint x="1508" y="813" as="sourcePoint" />
            <mxPoint x="1508" y="813" as="targetPoint" />
          </mxGeometry>
        </mxCell>
        <mxCell id="R22uzPUmE0PmxV476rB4-28" style="edgeStyle=orthogonalEdgeStyle;rounded=0;orthogonalLoop=1;jettySize=auto;html=1;entryX=0;entryY=0.5;entryDx=0;entryDy=0;" edge="1" parent="WIyWlLk6GJQsqaUBKTNV-1" source="R22uzPUmE0PmxV476rB4-29">
          <mxGeometry relative="1" as="geometry">
            <mxPoint x="1468" y="773" as="targetPoint" />
          </mxGeometry>
        </mxCell>
        <mxCell id="R22uzPUmE0PmxV476rB4-29" value="&lt;span style=&quot;background-color: rgb(255, 255, 255);&quot;&gt;Application server-2&lt;/span&gt;" style="verticalLabelPosition=bottom;aspect=fixed;html=1;verticalAlign=top;strokeColor=none;shape=mxgraph.citrix.xenapp_server;fillColor=#66B2FF;gradientColor=#0066CC;fontSize=14;" vertex="1" parent="WIyWlLk6GJQsqaUBKTNV-1">
          <mxGeometry x="1409" y="610" width="76" height="89" as="geometry" />
        </mxCell>
        <mxCell id="R22uzPUmE0PmxV476rB4-30" style="edgeStyle=none;rounded=0;html=1;startSize=10;endSize=10;jettySize=auto;orthogonalLoop=1;fontSize=14;endArrow=none;endFill=0;strokeWidth=1;exitX=0.644;exitY=0.085;exitDx=0;exitDy=0;exitPerimeter=0;entryX=0.75;entryY=1;entryDx=0;entryDy=0;" edge="1" parent="WIyWlLk6GJQsqaUBKTNV-1" source="R22uzPUmE0PmxV476rB4-31" target="R22uzPUmE0PmxV476rB4-37">
          <mxGeometry relative="1" as="geometry">
            <mxPoint x="613.75" y="992.86" as="targetPoint" />
          </mxGeometry>
        </mxCell>
        <mxCell id="R22uzPUmE0PmxV476rB4-31" value="Client" style="verticalLabelPosition=bottom;aspect=fixed;html=1;verticalAlign=top;strokeColor=none;shape=mxgraph.citrix.laptop_2;fillColor=#66B2FF;gradientColor=#0066CC;fontSize=14;" vertex="1" parent="WIyWlLk6GJQsqaUBKTNV-1">
          <mxGeometry x="642.75" y="1181.3600000000001" width="116" height="86.5" as="geometry" />
        </mxCell>
        <mxCell id="R22uzPUmE0PmxV476rB4-32" style="edgeStyle=none;rounded=0;html=1;startSize=10;endSize=10;jettySize=auto;orthogonalLoop=1;fontSize=14;endArrow=none;endFill=0;strokeWidth=1;exitX=0.693;exitY=0.286;exitDx=0;exitDy=0;exitPerimeter=0;entryX=0.25;entryY=1;entryDx=0;entryDy=0;" edge="1" parent="WIyWlLk6GJQsqaUBKTNV-1" target="R22uzPUmE0PmxV476rB4-37">
          <mxGeometry relative="1" as="geometry">
            <mxPoint x="503.42700000000013" y="1197.8880000000004" as="sourcePoint" />
            <mxPoint x="613.75" y="992.86" as="targetPoint" />
          </mxGeometry>
        </mxCell>
        <mxCell id="R22uzPUmE0PmxV476rB4-34" style="edgeStyle=orthogonalEdgeStyle;rounded=0;orthogonalLoop=1;jettySize=auto;html=1;exitX=0.25;exitY=0;exitDx=0;exitDy=0;" edge="1" parent="WIyWlLk6GJQsqaUBKTNV-1" source="R22uzPUmE0PmxV476rB4-37" target="R22uzPUmE0PmxV476rB4-45">
          <mxGeometry relative="1" as="geometry" />
        </mxCell>
        <mxCell id="R22uzPUmE0PmxV476rB4-35" style="edgeStyle=orthogonalEdgeStyle;rounded=0;orthogonalLoop=1;jettySize=auto;html=1;exitX=0.75;exitY=0;exitDx=0;exitDy=0;entryX=0.197;entryY=1.001;entryDx=0;entryDy=0;entryPerimeter=0;" edge="1" parent="WIyWlLk6GJQsqaUBKTNV-1" source="R22uzPUmE0PmxV476rB4-37">
          <mxGeometry relative="1" as="geometry">
            <mxPoint x="736" y="1014.56" as="targetPoint" />
          </mxGeometry>
        </mxCell>
        <mxCell id="R22uzPUmE0PmxV476rB4-36" style="edgeStyle=orthogonalEdgeStyle;rounded=0;orthogonalLoop=1;jettySize=auto;html=1;exitX=0.5;exitY=0;exitDx=0;exitDy=0;entryX=0.531;entryY=0.875;entryDx=0;entryDy=0;entryPerimeter=0;" edge="1" parent="WIyWlLk6GJQsqaUBKTNV-1">
          <mxGeometry relative="1" as="geometry">
            <mxPoint x="614.75" y="1084.8600000000001" as="sourcePoint" />
            <mxPoint x="614.73" y="1012.8600000000001" as="targetPoint" />
          </mxGeometry>
        </mxCell>
        <mxCell id="R22uzPUmE0PmxV476rB4-37" value="&lt;b&gt;Users/Clients (&lt;i&gt;HTTP requests)&lt;/i&gt;&lt;br&gt;&lt;/b&gt;" style="rounded=1;whiteSpace=wrap;html=1;" vertex="1" parent="WIyWlLk6GJQsqaUBKTNV-1">
          <mxGeometry x="519.75" y="1075.8600000000001" width="190" height="28" as="geometry" />
        </mxCell>
        <mxCell id="R22uzPUmE0PmxV476rB4-38" value="&lt;font style=&quot;font-size: 9px;&quot;&gt;www.foo.com&lt;/font&gt;" style="text;html=1;strokeColor=none;fillColor=none;align=center;verticalAlign=middle;whiteSpace=wrap;rounded=0;rotation=15;" vertex="1" parent="WIyWlLk6GJQsqaUBKTNV-1">
          <mxGeometry x="696.75" y="1221.8600000000001" width="48.37" height="16.55" as="geometry" />
        </mxCell>
        <mxCell id="R22uzPUmE0PmxV476rB4-39" value="" style="image;aspect=fixed;perimeter=ellipsePerimeter;html=1;align=center;shadow=0;dashed=0;spacingTop=3;image=img/lib/active_directory/internet_globe.svg;" vertex="1" parent="WIyWlLk6GJQsqaUBKTNV-1">
          <mxGeometry x="712.25" y="1206.8600000000001" width="18" height="18" as="geometry" />
        </mxCell>
        <mxCell id="R22uzPUmE0PmxV476rB4-42" style="edgeStyle=orthogonalEdgeStyle;rounded=0;orthogonalLoop=1;jettySize=auto;html=1;exitX=0.75;exitY=0;exitDx=0;exitDy=0;entryX=0.436;entryY=0.919;entryDx=0;entryDy=0;entryPerimeter=0;" edge="1" parent="WIyWlLk6GJQsqaUBKTNV-1" source="R22uzPUmE0PmxV476rB4-51">
          <mxGeometry relative="1" as="geometry">
            <mxPoint x="612.25" y="857.8600000000001" as="sourcePoint" />
            <mxPoint x="612.112" y="568.02823" as="targetPoint" />
          </mxGeometry>
        </mxCell>
        <mxCell id="R22uzPUmE0PmxV476rB4-43" value="&lt;font style=&quot;font-size: 14px;&quot;&gt;Server-3&lt;/font&gt;" style="image;html=1;image=img/lib/clip_art/computers/Server_Tower_128x128.png" vertex="1" parent="WIyWlLk6GJQsqaUBKTNV-1">
          <mxGeometry x="697.25" y="933.86" width="80" height="80" as="geometry" />
        </mxCell>
        <mxCell id="R22uzPUmE0PmxV476rB4-44" style="edgeStyle=orthogonalEdgeStyle;rounded=0;orthogonalLoop=1;jettySize=auto;html=1;exitX=0.676;exitY=0.125;exitDx=0;exitDy=0;exitPerimeter=0;" edge="1" parent="WIyWlLk6GJQsqaUBKTNV-1" source="R22uzPUmE0PmxV476rB4-45" target="R22uzPUmE0PmxV476rB4-5">
          <mxGeometry relative="1" as="geometry">
            <mxPoint x="502.3026315789475" y="849.86" as="sourcePoint" />
            <mxPoint x="578.25" y="628.0300000000001" as="targetPoint" />
            <Array as="points">
              <mxPoint x="502" y="530" />
            </Array>
          </mxGeometry>
        </mxCell>
        <mxCell id="R22uzPUmE0PmxV476rB4-45" value="&lt;font style=&quot;font-size: 14px;&quot;&gt;Server-1&lt;/font&gt;" style="image;html=1;image=img/lib/clip_art/computers/Server_Tower_128x128.png" vertex="1" parent="WIyWlLk6GJQsqaUBKTNV-1">
          <mxGeometry x="448.25" y="933.86" width="80" height="80" as="geometry" />
        </mxCell>
        <mxCell id="R22uzPUmE0PmxV476rB4-46" value="&lt;font style=&quot;font-size: 14px;&quot;&gt;Server-2&lt;/font&gt;" style="image;html=1;image=img/lib/clip_art/computers/Server_Tower_128x128.png" vertex="1" parent="WIyWlLk6GJQsqaUBKTNV-1">
          <mxGeometry x="572.25" y="933.86" width="80" height="80" as="geometry" />
        </mxCell>
        <mxCell id="R22uzPUmE0PmxV476rB4-47" value="" style="group" vertex="1" connectable="0" parent="WIyWlLk6GJQsqaUBKTNV-1">
          <mxGeometry x="434.99691094461525" y="869" width="84.72617811076952" height="80.00000000000011" as="geometry" />
        </mxCell>
        <mxCell id="R22uzPUmE0PmxV476rB4-48" value="" style="image;html=1;image=img/lib/clip_art/computers/Monitor_128x128.png" vertex="1" parent="R22uzPUmE0PmxV476rB4-47">
          <mxGeometry x="1.363089055384762" width="80" height="80" as="geometry" />
        </mxCell>
        <mxCell id="R22uzPUmE0PmxV476rB4-49" value="&lt;font style=&quot;font-size: 8px;&quot;&gt;Monitoring-1&lt;br&gt;Sumologic&lt;br&gt;Data&amp;nbsp;Collector&lt;br&gt;&lt;/font&gt;" style="text;html=1;strokeColor=none;fillColor=none;align=center;verticalAlign=middle;whiteSpace=wrap;rounded=0;fontSize=6;fontColor=#FFFFFF;rotation=-12;" vertex="1" parent="R22uzPUmE0PmxV476rB4-47">
          <mxGeometry x="2.363089055384762" y="17.360000000000014" width="80" height="31.14" as="geometry" />
        </mxCell>
        <mxCell id="R22uzPUmE0PmxV476rB4-50" value="" style="group" vertex="1" connectable="0" parent="WIyWlLk6GJQsqaUBKTNV-1">
          <mxGeometry x="552" y="869" width="84.72617811076952" height="80.00000000000011" as="geometry" />
        </mxCell>
        <mxCell id="R22uzPUmE0PmxV476rB4-51" value="" style="image;html=1;image=img/lib/clip_art/computers/Monitor_128x128.png" vertex="1" parent="R22uzPUmE0PmxV476rB4-50">
          <mxGeometry x="1.363089055384762" width="80" height="80" as="geometry" />
        </mxCell>
        <mxCell id="R22uzPUmE0PmxV476rB4-52" value="&lt;font style=&quot;font-size: 8px;&quot;&gt;Monitoring-2&lt;br&gt;Sumologic&lt;br&gt;Data&amp;nbsp;Collector&lt;br&gt;&lt;/font&gt;" style="text;html=1;strokeColor=none;fillColor=none;align=center;verticalAlign=middle;whiteSpace=wrap;rounded=0;fontSize=6;fontColor=#FFFFFF;rotation=-12;" vertex="1" parent="R22uzPUmE0PmxV476rB4-50">
          <mxGeometry x="2.363089055384762" y="17.360000000000014" width="80" height="31.14" as="geometry" />
        </mxCell>
        <mxCell id="R22uzPUmE0PmxV476rB4-53" value="" style="group" vertex="1" connectable="0" parent="WIyWlLk6GJQsqaUBKTNV-1">
          <mxGeometry x="669.9969109446153" y="869" width="84.72617811076952" height="80.00000000000011" as="geometry" />
        </mxCell>
        <mxCell id="R22uzPUmE0PmxV476rB4-54" value="" style="image;html=1;image=img/lib/clip_art/computers/Monitor_128x128.png" vertex="1" parent="R22uzPUmE0PmxV476rB4-53">
          <mxGeometry x="1.363089055384762" width="80" height="80" as="geometry" />
        </mxCell>
        <mxCell id="R22uzPUmE0PmxV476rB4-55" value="&lt;font style=&quot;font-size: 8px;&quot;&gt;Monitoring-3&lt;br&gt;Sumologic&lt;br&gt;Data&amp;nbsp;Collector&lt;br&gt;&lt;/font&gt;" style="text;html=1;strokeColor=none;fillColor=none;align=center;verticalAlign=middle;whiteSpace=wrap;rounded=0;fontSize=6;fontColor=#FFFFFF;rotation=-12;" vertex="1" parent="R22uzPUmE0PmxV476rB4-53">
          <mxGeometry x="2.363089055384762" y="17.360000000000014" width="80" height="31.14" as="geometry" />
        </mxCell>
        <mxCell id="R22uzPUmE0PmxV476rB4-56" value="SSL installed on LB&lt;br style=&quot;border-color: var(--border-color);&quot;&gt;&lt;span style=&quot;&quot;&gt;to serve&lt;/span&gt;&lt;br style=&quot;border-color: var(--border-color);&quot;&gt;&lt;span style=&quot;&quot;&gt;www.foobar.com&lt;/span&gt;" style="text;html=1;strokeColor=none;fillColor=none;align=center;verticalAlign=middle;whiteSpace=wrap;rounded=0;" vertex="1" parent="WIyWlLk6GJQsqaUBKTNV-1">
          <mxGeometry x="549.75" y="441" width="130" height="30" as="geometry" />
        </mxCell>
        <mxCell id="R22uzPUmE0PmxV476rB4-57" value="SSL" style="text;html=1;strokeColor=none;fillColor=none;align=center;verticalAlign=middle;whiteSpace=wrap;rounded=0;" vertex="1" parent="WIyWlLk6GJQsqaUBKTNV-1">
          <mxGeometry x="546.5" y="526" width="60" height="30" as="geometry" />
        </mxCell>
        <mxCell id="R22uzPUmE0PmxV476rB4-58" value="" style="edgeStyle=orthogonalEdgeStyle;rounded=0;orthogonalLoop=1;jettySize=auto;html=1;" edge="1" parent="WIyWlLk6GJQsqaUBKTNV-1" source="R22uzPUmE0PmxV476rB4-54" target="R22uzPUmE0PmxV476rB4-3">
          <mxGeometry relative="1" as="geometry">
            <mxPoint x="722.25" y="849.86" as="sourcePoint" />
            <mxPoint x="664" y="523" as="targetPoint" />
            <Array as="points">
              <mxPoint x="722" y="523" />
            </Array>
          </mxGeometry>
        </mxCell>
        <mxCell id="R22uzPUmE0PmxV476rB4-59" value="firewall" style="image;html=1;image=img/lib/clip_art/networking/Firewall_128x128.png" vertex="1" parent="WIyWlLk6GJQsqaUBKTNV-1">
          <mxGeometry x="572" y="724" width="80" height="80" as="geometry" />
        </mxCell>
        <mxCell id="R22uzPUmE0PmxV476rB4-60" value="firewall" style="image;html=1;image=img/lib/clip_art/networking/Firewall_128x128.png" vertex="1" parent="WIyWlLk6GJQsqaUBKTNV-1">
          <mxGeometry x="461.93" y="724" width="80" height="80" as="geometry" />
        </mxCell>
        <mxCell id="R22uzPUmE0PmxV476rB4-61" value="firewall" style="image;html=1;image=img/lib/clip_art/networking/Firewall_128x128.png" vertex="1" parent="WIyWlLk6GJQsqaUBKTNV-1">
          <mxGeometry x="682.25" y="724" width="80" height="80" as="geometry" />
        </mxCell>
        <mxCell id="R22uzPUmE0PmxV476rB4-62" value="" style="endArrow=classic;startArrow=classic;html=1;rounded=0;exitX=0.991;exitY=0.607;exitDx=0;exitDy=0;exitPerimeter=0;entryX=-0.013;entryY=0.449;entryDx=0;entryDy=0;entryPerimeter=0;" edge="1" parent="WIyWlLk6GJQsqaUBKTNV-1" target="R22uzPUmE0PmxV476rB4-29">
          <mxGeometry width="50" height="50" relative="1" as="geometry">
            <mxPoint x="1078" y="744" as="sourcePoint" />
            <mxPoint x="1358" y="620" as="targetPoint" />
            <Array as="points">
              <mxPoint x="1218" y="744" />
            </Array>
          </mxGeometry>
        </mxCell>
        <mxCell id="R22uzPUmE0PmxV476rB4-63" value="" style="endArrow=classic;html=1;rounded=0;entryX=0.25;entryY=1;entryDx=0;entryDy=0;" edge="1" parent="WIyWlLk6GJQsqaUBKTNV-1" target="R22uzPUmE0PmxV476rB4-4">
          <mxGeometry width="50" height="50" relative="1" as="geometry">
            <mxPoint x="668" y="496" as="sourcePoint" />
            <mxPoint x="1015" y="416" as="targetPoint" />
            <Array as="points">
              <mxPoint x="1015" y="496" />
            </Array>
          </mxGeometry>
        </mxCell>
        <mxCell id="R22uzPUmE0PmxV476rB4-64" value="" style="endArrow=classic;html=1;rounded=0;entryX=0.25;entryY=1;entryDx=0;entryDy=0;" edge="1" parent="WIyWlLk6GJQsqaUBKTNV-1">
          <mxGeometry width="50" height="50" relative="1" as="geometry">
            <mxPoint x="667.9999999999995" y="514.0000000000002" as="sourcePoint" />
            <mxPoint x="1015.9999999999995" y="667.0000000000002" as="targetPoint" />
            <Array as="points">
              <mxPoint x="1014.9999999999995" y="514.0000000000002" />
            </Array>
          </mxGeometry>
        </mxCell>
        <mxCell id="R22uzPUmE0PmxV476rB4-65" value="&lt;i style=&quot;border-color: var(--border-color); font-size: 10px;&quot;&gt;LB evenly distributes incoming requests across the two web servers.&lt;/i&gt;" style="text;html=1;strokeColor=none;fillColor=default;align=center;verticalAlign=middle;whiteSpace=wrap;rounded=1;fontSize=10;" vertex="1" parent="WIyWlLk6GJQsqaUBKTNV-1">
          <mxGeometry x="689.25" y="499" width="312.75" height="12" as="geometry" />
        </mxCell>
        <mxCell id="R22uzPUmE0PmxV476rB4-66" value="Client" style="image;aspect=fixed;html=1;points=[];align=center;fontSize=12;image=img/lib/azure2/management_governance/Managed_Desktop.svg;" vertex="1" parent="WIyWlLk6GJQsqaUBKTNV-1">
          <mxGeometry x="450" y="1207.82" width="80" height="74.35" as="geometry" />
        </mxCell>
        <mxCell id="R22uzPUmE0PmxV476rB4-67" value="Application Files&lt;br style=&quot;border-color: var(--border-color);&quot;&gt;(Code Base)" style="image;aspect=fixed;html=1;points=[];align=center;fontSize=12;image=img/lib/azure2/general/Files.svg;" vertex="1" parent="WIyWlLk6GJQsqaUBKTNV-1">
          <mxGeometry x="1500" y="259" width="64" height="70" as="geometry" />
        </mxCell>
        <mxCell id="R22uzPUmE0PmxV476rB4-68" value="Application Files&lt;br style=&quot;border-color: var(--border-color);&quot;&gt;(Code Base)" style="image;aspect=fixed;html=1;points=[];align=center;fontSize=12;image=img/lib/azure2/general/Files.svg;" vertex="1" parent="WIyWlLk6GJQsqaUBKTNV-1">
          <mxGeometry x="1460" y="750" width="89" height="97.34" as="geometry" />
        </mxCell>
      </root>
    </mxGraphModel>
  </diagram>
</mxfile>
